# xmcd
#
# Track frame offsets:
#	150
#	13658
#	27771
#	46202
#	66461
#	84081
#	102854
#	121137
#	133458
#	149497
#	166293
#	183809
#	199412
#
# Disc length: 3127 seconds
#
# Revision: 1
# Processed by: cddbd v1.5.2PL0 Copyright (c) Steve Scherf et al.
# Submitted via: audiograbber 1.83.01
#
DISCID=b20c350d
DTITLE=LOUIS-ÉTIENNE - SANS SE RETOURNER
DYEAR=2009
DGENRE=Chansons
TTITLE0=Dans mon univers
TTITLE1=Sans se retourner
TTITLE2=Des jours ou cest fatal
TTITLE3=Nicolas
TTITLE4=Marcel
TTITLE5=Notre histoire
TTITLE6=Les 400 coups
TTITLE7=Pour les femmes
TTITLE8=Le temps des fleurs
TTITLE9=Lange vint
TTITLE10=Chanson pour le sergent
TTITLE11=Pour un tour!
TTITLE12=Et le band jouait Waltzing Mathilda
EXTD=
EXTT0=
EXTT1=
EXTT2=
EXTT3=
EXTT4=
EXTT5=
EXTT6=
EXTT7=
EXTT8=
EXTT9=
EXTT10=
EXTT11=
EXTT12=
PLAYORDER=
